# xmcd
#
# Track frame offsets: 
#        150
#        13371
#        27807
#        40006
#        51743
#        61915
#        74030
#        86806
#        100035
#        113411
#        124769
#        135554
#        146386
#        158631
#        171063
#        183588
#        196005
#        210310
#        224127
#        236930
#        246327
#        258740
#        269726
#        282048
#        293076
#        304182
#        317452
#        328846
#
# Disc length: 4524 seconds
#
# Revision: 1
# Processed by: cddbd v1.5.2PL0 Copyright (c) Steve Scherf et al.
# Submitted via: ExactAudioCopyFreeDBPlugin 1.0
#
DISCID=af11aa1c
DTITLE=Various Artist - Jody Williams In Session: Diary Of A Chicago 
DTITLE=Bluesman 1954-1962
DYEAR=2018
DGENRE=Blues
TTITLE0=Howlin' Wolf - Evil Is Goin' On
TTITLE1=Earl Phillips - Oop De Oop
TTITLE2=Billy Boy Arnold - I Wish You Would
TTITLE3=Sonny Boy Williamson - Don't Start Me Talkin'
TTITLE4=Billy Boy Arnold - I Ain't Got You
TTITLE5=Little Papa Joe - Looking For My Baby
TTITLE6=Little Papa Joe - Easy Lovin'
TTITLE7=Little Papa Joe - Groaning My Blues Away
TTITLE8=Little Papa Joe - I Feel So All Alone
TTITLE9=Bo Diddley - Who Do You Love
TTITLE10=Billy Stewart - Billy's Blues (Part 1)
TTITLE11=Billy Stewart - Billy's Blues (Part 2)
TTITLE12=Jimmy Witherspoon - Ain't Nobody's Business
TTITLE13=Floyd Dixon - Alarm Clock Blues
TTITLE14=Jimmy Rogers - I Can't Believe
TTITLE15=Jimmy Rogers - One Kiss
TTITLE16=Little Joe Lee - You May
TTITLE17=Little Joe Lee - Lucky Lou
TTITLE18=Little Joe Lee - What Kind Of Girl Is This
TTITLE19=Harold Burrage - Messed Up
TTITLE20=Bobby Davis - Hype You Into Selling (Your Head)
TTITLE21=Bobby Davis - I Was Wrong
TTITLE22=Bobby Davis - One Love Have I
TTITLE23=Bobby Davis - She's A Problem
TTITLE24=Jody Williams - Lonely Without You
TTITLE25=Jody Williams - Time For A Change
TTITLE26=Jody Williams - Hideout
TTITLE27=Jody Williams - Moanin' For Molasses
EXTD=
EXTT0=
EXTT1=
EXTT2=
EXTT3=
EXTT4=
EXTT5=
EXTT6=
EXTT7=
EXTT8=
EXTT9=
EXTT10=
EXTT11=
EXTT12=
EXTT13=
EXTT14=
EXTT15=
EXTT16=
EXTT17=
EXTT18=
EXTT19=
EXTT20=
EXTT21=
EXTT22=
EXTT23=
EXTT24=
EXTT25=
EXTT26=
EXTT27=
PLAYORDER=
